{
	"asset":{
		"generator":"Khronos glTF Blender I/O v4.2.70",
		"version":"2.0"
	},
	"extensionsUsed":[
		"KHR_materials_clearcoat",
		"KHR_materials_emissive_strength"
	],
	"scene":0,
	"scenes":[
		{
			"name":"Scene",
			"nodes":[
				0,
				1,
				2
			]
		}
	],
	"nodes":[
		{
			"mesh":0,
			"name":"Cube",
			"scale":[
				0.5,
				1,
				1
			]
		},
		{
			"name":"Empty",
			"rotation":[
				0.49999964237213135,
				0.49999964237213135,
				-0.5000003576278687,
				0.5000003576278687
			],
			"translation":[
				-5,
				0,
				0
			]
		},
		{
			"mesh":1,
			"name":"Sphere",
			"scale":[
				0.0562700591981411,
				0.0562700591981411,
				0.0562700591981411
			],
			"translation":[
				0.3362480401992798,
				1.1171162128448486,
				-1.710483193397522
			]
		}
	],
	"animations":[
		{
			"channels":[
				{
					"sampler":0,
					"target":{
						"node":0,
						"path":"translation"
					}
				},
				{
					"sampler":1,
					"target":{
						"node":0,
						"path":"rotation"
					}
				},
				{
					"sampler":2,
					"target":{
						"node":0,
						"path":"scale"
					}
				}
			],
			"name":"CubeAction",
			"samplers":[
				{
					"input":8,
					"interpolation":"LINEAR",
					"output":9
				},
				{
					"input":8,
					"interpolation":"LINEAR",
					"output":10
				},
				{
					"input":8,
					"interpolation":"LINEAR",
					"output":11
				}
			]
		},
		{
			"channels":[
				{
					"sampler":0,
					"target":{
						"node":2,
						"path":"translation"
					}
				},
				{
					"sampler":1,
					"target":{
						"node":2,
						"path":"rotation"
					}
				},
				{
					"sampler":2,
					"target":{
						"node":2,
						"path":"scale"
					}
				}
			],
			"name":"muzzle_flash",
			"samplers":[
				{
					"input":12,
					"interpolation":"STEP",
					"output":13
				},
				{
					"input":12,
					"interpolation":"STEP",
					"output":14
				},
				{
					"input":15,
					"interpolation":"LINEAR",
					"output":16
				}
			]
		}
	],
	"materials":[
		{
			"doubleSided":true,
			"extensions":{
				"KHR_materials_clearcoat":{
					"clearcoatRoughnessFactor":0.09422018378973007
				}
			},
			"name":"Material",
			"pbrMetallicRoughness":{
				"baseColorFactor":[
					0.014675678685307503,
					0.014675678685307503,
					0.014675678685307503,
					1
				],
				"metallicFactor":0.17431189119815826,
				"roughnessFactor":0.47247710824012756
			}
		},
		{
			"doubleSided":true,
			"emissiveFactor":[
				1,
				0.35104674100875854,
				0.03952266648411751
			],
			"extensions":{
				"KHR_materials_emissive_strength":{
					"emissiveStrength":8.600001335144043
				}
			},
			"name":"Material.001",
			"pbrMetallicRoughness":{
				"baseColorFactor":[
					0,
					0,
					0,
					1
				]
			}
		}
	],
	"meshes":[
		{
			"name":"Cube",
			"primitives":[
				{
					"attributes":{
						"POSITION":0,
						"NORMAL":1,
						"TEXCOORD_0":2
					},
					"indices":3,
					"material":0
				}
			]
		},
		{
			"name":"Sphere",
			"primitives":[
				{
					"attributes":{
						"POSITION":4,
						"NORMAL":5,
						"TEXCOORD_0":6
					},
					"indices":7,
					"material":1
				}
			]
		}
	],
	"accessors":[
		{
			"bufferView":0,
			"componentType":5126,
			"count":310,
			"max":[
				1,
				1.3773632049560547,
				2.306204080581665
			],
			"min":[
				-0.1720268726348877,
				-1.5844473838806152,
				-1.9345812797546387
			],
			"type":"VEC3"
		},
		{
			"bufferView":1,
			"componentType":5126,
			"count":310,
			"type":"VEC3"
		},
		{
			"bufferView":2,
			"componentType":5126,
			"count":310,
			"type":"VEC2"
		},
		{
			"bufferView":3,
			"componentType":5123,
			"count":504,
			"type":"SCALAR"
		},
		{
			"bufferView":4,
			"componentType":5126,
			"count":1984,
			"max":[
				-0.32567745447158813,
				0.8682140707969666,
				-1.115724802017212
			],
			"min":[
				-2.3211848735809326,
				-1.1316814422607422,
				-5.085857391357422
			],
			"type":"VEC3"
		},
		{
			"bufferView":5,
			"componentType":5126,
			"count":1984,
			"type":"VEC3"
		},
		{
			"bufferView":6,
			"componentType":5126,
			"count":1984,
			"type":"VEC2"
		},
		{
			"bufferView":7,
			"componentType":5123,
			"count":2880,
			"type":"SCALAR"
		},
		{
			"bufferView":8,
			"componentType":5126,
			"count":1,
			"max":[
				0.7083333333333334
			],
			"min":[
				0.7083333333333334
			],
			"type":"SCALAR"
		},
		{
			"bufferView":9,
			"componentType":5126,
			"count":1,
			"type":"VEC3"
		},
		{
			"bufferView":10,
			"componentType":5126,
			"count":1,
			"type":"VEC4"
		},
		{
			"bufferView":11,
			"componentType":5126,
			"count":1,
			"type":"VEC3"
		},
		{
			"bufferView":12,
			"componentType":5126,
			"count":2,
			"max":[
				0.7916666666666666
			],
			"min":[
				0.7083333333333334
			],
			"type":"SCALAR"
		},
		{
			"bufferView":13,
			"componentType":5126,
			"count":2,
			"type":"VEC3"
		},
		{
			"bufferView":14,
			"componentType":5126,
			"count":2,
			"type":"VEC4"
		},
		{
			"bufferView":15,
			"componentType":5126,
			"count":3,
			"max":[
				0.7916666666666666
			],
			"min":[
				0.7083333333333334
			],
			"type":"SCALAR"
		},
		{
			"bufferView":16,
			"componentType":5126,
			"count":3,
			"type":"VEC3"
		}
	],
	"bufferViews":[
		{
			"buffer":0,
			"byteLength":3720,
			"byteOffset":0,
			"target":34962
		},
		{
			"buffer":0,
			"byteLength":3720,
			"byteOffset":3720,
			"target":34962
		},
		{
			"buffer":0,
			"byteLength":2480,
			"byteOffset":7440,
			"target":34962
		},
		{
			"buffer":0,
			"byteLength":1008,
			"byteOffset":9920,
			"target":34963
		},
		{
			"buffer":0,
			"byteLength":23808,
			"byteOffset":10928,
			"target":34962
		},
		{
			"buffer":0,
			"byteLength":23808,
			"byteOffset":34736,
			"target":34962
		},
		{
			"buffer":0,
			"byteLength":15872,
			"byteOffset":58544,
			"target":34962
		},
		{
			"buffer":0,
			"byteLength":5760,
			"byteOffset":74416,
			"target":34963
		},
		{
			"buffer":0,
			"byteLength":4,
			"byteOffset":80176
		},
		{
			"buffer":0,
			"byteLength":12,
			"byteOffset":80180
		},
		{
			"buffer":0,
			"byteLength":16,
			"byteOffset":80192
		},
		{
			"buffer":0,
			"byteLength":12,
			"byteOffset":80208
		},
		{
			"buffer":0,
			"byteLength":8,
			"byteOffset":80220
		},
		{
			"buffer":0,
			"byteLength":24,
			"byteOffset":80228
		},
		{
			"buffer":0,
			"byteLength":32,
			"byteOffset":80252
		},
		{
			"buffer":0,
			"byteLength":12,
			"byteOffset":80284
		},
		{
			"buffer":0,
			"byteLength":36,
			"byteOffset":80296
		}
	],
	"buffers":[
		{
			"byteLength":80332,
			"uri":"pistol_model.bin"
		}
	]
}
